<?xml version="1.0" encoding="UTF-8"?>
<svg width="1920" height="380" version="1.1" viewBox="0 0 508 100.54" xmlns="http://www.w3.org/2000/svg"><g transform="translate(0 -196.46)"><g transform="translate(13.5 232.97)"><path transform="matrix(.26458 0 0 .26458 -13.5 -36.51)" d="m173.15 0c-18.703 0.9086-115.2 32.16-159.69 56.27-6.402 3.4708-13.428 15.388-13.461 20.615 0 47.834 11.516 118.4 44.053 181.09l63.666-63.637c-12.307-31.097-4.9722-66.534 18.666-90.191 14.382-13.683 41.474-23.779 65.01-24.195 10.698-0.18916 20.661 1.6232 28.361 6.0078 4.5076 2.6025 2.392 5.9615 1.0469 7.3066l-48.758 46.768c-6.1617 6.6195-0.81975 23.596 3.1562 34.385 10.789 3.9763 27.767 9.3141 34.387 3.1523l46.768-48.752c1.3452-1.3452 4.7042-3.4607 7.3066 1.0469 14.031 24.643 1.7085 72.452-18.193 93.371-23.658 23.638-59.089 30.973-90.186 18.666l-73.053 73.039c23.753 27.519 53.65 50.52 90.914 65.059 134.73-52.567 173.15-215.75 173.15-303.12-0.0378-5.2277-7.059-17.146-13.461-20.615-44.493-24.109-140.98-55.359-159.69-56.27z" stroke-width="3.2804"/><g transform="matrix(1.542 -1.542 1.542 1.542 -219.77 -158.51)" fill="#fff"><g transform="rotate(90 84.232 171.06)" fill="#fff"></g></g><g style="font-variant-caps:normal;font-variant-ligatures:normal;font-variant-numeric:normal" aria-label="PrivacyTools"><g stroke-width="1.1189"><path d="m101.96 40.316v-52.215h24.168q7.6085 0 12.308 4.401 4.774 4.3264 4.774 11.264 0 6.8626-4.774 11.189-4.774 4.3264-12.308 4.3264h-16.336v21.035zm23.348-45.353h-15.515v17.679h15.515q4.5502 0 7.2356-2.387 2.76-2.4616 2.76-6.4896 0-4.0281-2.76-6.415-2.6854-2.387-7.2356-2.387z"/><path d="m147.41 40.316v-37.968h7.4594v4.8486q1.7157-2.76 4.401-4.1772 2.6854-1.4919 6.0421-1.4919 1.1935 0 2.0886 0.14919t1.7156 0.44756v6.7134q-1.0443-0.37297-2.1632-0.59675-1.1189-0.22378-2.2378-0.22378-3.2821 0-5.8929 1.7902-2.5362 1.7157-3.9535 5.147v25.362z"/><path d="m175.91-3.7688q-1.8648 0-3.2075-1.3427-1.3427-1.4173-1.3427-3.2821 0-1.8648 1.3427-3.2075 1.3427-1.4173 3.2075-1.4173 1.8648 0 3.2075 1.4173 1.4173 1.3427 1.4173 3.2075 0 1.8648-1.4173 3.2821-1.3427 1.3427-3.2075 1.3427zm3.7297 6.1167v37.968h-7.4594v-37.968z"/><path d="m197.83 40.316-16.411-37.968h8.2053l11.86 28.42 11.86-28.42h7.9815l-16.411 37.968z"/><path d="m235.06 40.987q-6.1913 0-10.07-3.2075-3.8789-3.2075-3.8789-8.3545 0-5.3707 4.1026-8.4291 4.1026-3.1329 11.264-3.1329 2.76 0 5.3707 0.59675 2.6108 0.52215 4.9978 1.4919v-4.0281q0-4.0281-2.387-6.0421-2.387-2.014-6.8626-2.014-2.6108 0-5.4453 0.82053-2.8346 0.74594-6.3404 2.387l-2.76-5.5945q4.2518-2.014 8.0561-2.9091 3.8043-0.96972 7.534-0.96972 7.3848 0 11.413 3.5805 4.1026 3.5059 4.1026 9.9955v25.138h-7.3102v-3.2821q-2.5362 2.014-5.4453 2.9837t-6.3404 0.96972zm-6.788-11.711q0 2.76 2.3124 4.4756 2.387 1.7157 6.1913 1.7157 2.9837 0 5.5199-0.89512 2.5362-0.89512 4.5502-2.6854v-6.5642q-2.1632-1.1935-4.5502-1.7157-2.387-0.59675-5.2216-0.59675-4.028 0-6.415 1.7157-2.387 1.7157-2.387 4.5502z"/><path d="m277.9 34.423q2.8346 0 5.3707-1.1189 2.5362-1.1935 4.8486-3.5059l4.4756 4.8486q-2.9837 2.9837-6.8626 4.6994-3.8789 1.6411-8.1307 1.6411-4.1026 0-7.6831-1.4919-3.5805-1.5665-6.1913-4.1772-2.6108-2.6108-4.1772-6.1913-1.4919-3.6551-1.4919-7.8323 0-4.1026 1.4919-7.6831 1.5665-3.6551 4.1772-6.2659 2.6108-2.6854 6.1913-4.1772 3.5805-1.5665 7.6831-1.5665 4.2518 0 8.2799 1.7157 4.028 1.6411 7.0118 4.6248l-4.6994 5.0724q-2.1632-2.3124-4.8486-3.5059-2.6854-1.2681-5.5945-1.2681-5.147 0-8.7274 3.8043-3.5805 3.8043-3.5805 9.2496 0 5.5945 3.5805 9.3988 3.6551 3.7297 8.8766 3.7297z"/><path d="m305.25 43.896 1.4919-3.4313-15.142-38.117h8.2053l11.114 29.017 12.233-29.017h8.0561l-18.35 42.518q-2.6108 6.0421-5.9675 8.6529-3.3567 2.6854-8.5783 2.6854-1.1935 0-2.2378-0.14919-0.96971-0.07459-1.7156-0.29837v-6.5642q0.74594 0.14919 1.4919 0.22378 0.82053 0.07459 1.8648 0.07459 2.5362 0 4.401-1.4173 1.9394-1.3427 3.1329-4.1772z"/><path d="m329.8-4.9623v-6.9372h44.532v6.9372h-18.35v45.278h-7.8323v-45.278z"/><path d="m366.34 21.295q0-4.1026 1.4919-7.6831 1.5665-3.6551 4.2518-6.2659 2.6854-2.6854 6.2659-4.1772 3.6551-1.5665 7.7577-1.5665 4.1026 0 7.6831 1.5665 3.6551 1.4919 6.2659 4.1772 2.6854 2.6108 4.1772 6.2659 1.5665 3.5805 1.5665 7.6831 0 4.1772-1.5665 7.8323-1.4919 3.5805-4.1772 6.2659-2.6108 2.6108-6.2659 4.1772-3.5805 1.4919-7.6831 1.4919-4.1026 0-7.7577-1.4919-3.5805-1.5665-6.2659-4.1772-2.6854-2.6854-4.2518-6.2659-1.4919-3.6551-1.4919-7.8323zm19.767 13.203q5.147 0 8.7274-3.8043 3.6551-3.8789 3.6551-9.3988 0-5.5199-3.6551-9.3242-3.5805-3.8043-8.7274-3.8043-5.147 0-8.802 3.8043-3.6551 3.8043-3.6551 9.3242 0 5.5199 3.5805 9.3988 3.6551 3.8043 8.8766 3.8043z"/><path d="m408.46 21.295q0-4.1026 1.4919-7.6831 1.5665-3.6551 4.2518-6.2659 2.6854-2.6854 6.2659-4.1772 3.6551-1.5665 7.7577-1.5665 4.1026 0 7.6831 1.5665 3.6551 1.4919 6.2659 4.1772 2.6854 2.6108 4.1772 6.2659 1.5665 3.5805 1.5665 7.6831 0 4.1772-1.5665 7.8323-1.4919 3.5805-4.1772 6.2659-2.6108 2.6108-6.2659 4.1772-3.5805 1.4919-7.6831 1.4919-4.1026 0-7.7577-1.4919-3.5805-1.5665-6.2659-4.1772-2.6854-2.6854-4.2518-6.2659-1.4919-3.6551-1.4919-7.8323zm19.767 13.203q5.147 0 8.7274-3.8043 3.6551-3.8789 3.6551-9.3988 0-5.5199-3.6551-9.3242-3.5805-3.8043-8.7274-3.8043-5.147 0-8.802 3.8043-3.6551 3.8043-3.6551 9.3242 0 5.5199 3.5805 9.3988 3.6551 3.8043 8.8766 3.8043z"/><path d="m459.6-13.541v53.857h-7.4594v-52.215z"/><path d="m461.98 35.393 4.028-4.9232q2.9837 2.3124 6.0421 3.5805 3.1329 1.1935 6.3405 1.1935 4.028 0 6.5642-1.5665 2.5362-1.5665 2.5362-4.1026 0-2.014-1.4919-3.2075-1.4919-1.1935-4.6248-1.6411l-6.8626-0.96972q-5.5945-0.82053-8.5037-3.4313-2.8346-2.6854-2.8346-7.0864 0-5.147 4.1026-8.2799 4.1026-3.2075 10.741-3.2075 4.1772 0 7.9069 1.1935 3.8043 1.1935 7.3848 3.6551l-3.8043 4.9232q-3.1329-2.0886-6.1167-2.9837-2.9091-0.96972-5.8929-0.96972-3.4313 0-5.5199 1.4173-2.0886 1.4173-2.0886 3.7297 0 2.0886 1.4173 3.2075 1.4919 1.0443 4.8486 1.5665l6.8626 0.96972q5.5945 0.82053 8.5037 3.5059 2.9837 2.6854 2.9837 7.0864 0 2.5362-1.2681 4.774-1.1935 2.1632-3.3567 3.7297-2.0886 1.5665-4.9978 2.5362-2.9091 0.89512-6.2658 0.89512-4.9232 0-9.2496-1.4173-4.2518-1.4173-7.3848-4.1772z"/></g></g></g></g></svg>
