<?xml version="1.0" encoding="UTF-8"?>
<svg width="512" height="512" version="1.1" viewBox="0 0 135.47 135.46" xmlns="http://www.w3.org/2000/svg"><rect x="4.7412e-6" y="-.0021803" width="135.47" height="135.47" fill="#3498db" stroke-width=".31642"/><path d="m67.735 18.519c-4.9487 0.2404-30.48 8.5093-42.252 14.888-1.6938 0.91834-3.5529 4.0714-3.5616 5.4545 0 12.656 3.0471 31.327 11.656 47.914l16.845-16.837c-3.2564-8.2278-1.3156-17.604 4.9388-23.863 3.8053-3.6203 10.973-6.2917 17.201-6.4018 2.8307-0.05 5.4666 0.42948 7.504 1.5896 1.1926 0.68859 0.6329 1.5773 0.27699 1.9332l-12.901 12.374c-1.6303 1.7514-0.2169 6.2432 0.8351 9.0978 2.8547 1.0521 7.3469 2.4644 9.0984 0.83407l12.374-12.899c0.35592-0.35592 1.2446-0.91566 1.9332 0.27698 3.7124 6.5201 0.45206 19.17-4.8138 24.704-6.2596 6.2544-15.634 8.1951-23.862 4.9388l-19.329 19.325c6.2848 7.2811 14.195 13.367 24.054 17.213 35.649-13.908 45.814-57.086 45.814-80.2-0.01-1.3832-1.8677-4.5367-3.5616-5.4545-11.772-6.3789-37.302-14.647-42.251-14.888z" fill="#fff" stroke-width=".86796"/></svg>
